<?xml version="1.0" encoding="UTF-8"?>
<svg xmlns="http://www.w3.org/2000/svg" width="520" height="120" viewBox="0 0 520 120" role="img" aria-label="Gate pipeline">
  <rect width="100%" height="100%" fill="#f7f9fa" rx="12"/>
  <text x="24" y="28" fill="#14212b" font-size="16" font-weight="700">Gate Pipeline</text>
  <line x1="83" y1="52" x2="112" y2="52" stroke="#c5ddd6" stroke-width="2"/>
<line x1="148" y1="52" x2="177" y2="52" stroke="#c5ddd6" stroke-width="2"/>
<line x1="213" y1="52" x2="242" y2="52" stroke="#c5ddd6" stroke-width="2"/>
<line x1="278" y1="52" x2="307" y2="52" stroke="#c5ddd6" stroke-width="2"/>
<line x1="343" y1="52" x2="372" y2="52" stroke="#c5ddd6" stroke-width="2"/>
<line x1="408" y1="52" x2="437" y2="52" stroke="#c5ddd6" stroke-width="2"/>
  <circle cx="65" cy="52" r="18" fill="#c5ddd6" stroke="#6a7d8a" stroke-width="2"/>
<text x="65" y="57" text-anchor="middle" fill="#14212b" font-size="11" font-weight="700">0</text>
<text x="65" y="88" text-anchor="middle" fill="#6a7d8a" font-size="9">Gate</text>
<circle cx="130" cy="52" r="18" fill="#c5ddd6" stroke="#6a7d8a" stroke-width="2"/>
<text x="130" y="57" text-anchor="middle" fill="#14212b" font-size="11" font-weight="700">A</text>
<text x="130" y="88" text-anchor="middle" fill="#6a7d8a" font-size="9">Gate</text>
<circle cx="195" cy="52" r="18" fill="#c5ddd6" stroke="#6a7d8a" stroke-width="2"/>
<text x="195" y="57" text-anchor="middle" fill="#14212b" font-size="11" font-weight="700">B</text>
<text x="195" y="88" text-anchor="middle" fill="#6a7d8a" font-size="9">Gate</text>
<circle cx="260" cy="52" r="18" fill="#c5ddd6" stroke="#6a7d8a" stroke-width="2"/>
<text x="260" y="57" text-anchor="middle" fill="#14212b" font-size="11" font-weight="700">C</text>
<text x="260" y="88" text-anchor="middle" fill="#6a7d8a" font-size="9">Gate</text>
<circle cx="325" cy="52" r="18" fill="#c5ddd6" stroke="#6a7d8a" stroke-width="2"/>
<text x="325" y="57" text-anchor="middle" fill="#14212b" font-size="11" font-weight="700">D</text>
<text x="325" y="88" text-anchor="middle" fill="#6a7d8a" font-size="9">Gate</text>
<circle cx="390" cy="52" r="18" fill="#c5ddd6" stroke="#6a7d8a" stroke-width="2"/>
<text x="390" y="57" text-anchor="middle" fill="#14212b" font-size="11" font-weight="700">E</text>
<text x="390" y="88" text-anchor="middle" fill="#6a7d8a" font-size="9">Gate</text>
<circle cx="455" cy="52" r="18" fill="#c5ddd6" stroke="#6a7d8a" stroke-width="2"/>
<text x="455" y="57" text-anchor="middle" fill="#14212b" font-size="11" font-weight="700">F</text>
<text x="455" y="88" text-anchor="middle" fill="#6a7d8a" font-size="9">Gate</text>
</svg>