<?xml version="1.0" encoding="UTF-8"?>
<svg xmlns="http://www.w3.org/2000/svg" width="520" height="280" viewBox="0 0 520 280" role="img" aria-label="SOC Ledger summary R 20.6">
  <rect width="100%" height="100%" fill="#f7f9fa" rx="12"/>
  <text x="24" y="32" fill="#14212b" font-size="16" font-weight="700">SOC Ledger · Model 2.1</text>
  <circle cx="110" cy="130" r="72" fill="none" stroke="#e8eef0" stroke-width="12"/>
  <circle cx="110" cy="130" r="72" fill="none" stroke="#1a6b5c" stroke-width="12" stroke-linecap="round"
    stroke-dasharray="452.3893421169302" stroke-dashoffset="359.360646605108" transform="rotate(-90 110 130)"/>
  <text x="110" y="126" text-anchor="middle" fill="#14212b" font-size="36" font-weight="700">20.6</text>
  <text x="110" y="150" text-anchor="middle" fill="#6a7d8a" font-size="13" font-weight="600">R</text>
  <text x="110" y="174" text-anchor="middle" fill="#3d5a80" font-size="11">Foundation setup</text>
  <text x="220" y="40" fill="#6a7d8a" font-size="12" font-weight="600">T</text>
<text x="500" y="40" fill="#14212b" font-size="12" text-anchor="end">3/5.8</text>
<rect x="220" y="48" width="280" height="14" rx="7" fill="#e8eef0"/>
<rect x="220" y="48" width="143.30516922139105" height="14" rx="7" fill="#1a6b5c"/>
<text x="220" y="92" fill="#6a7d8a" font-size="12" font-weight="600">P</text>
<text x="500" y="92" fill="#14212b" font-size="12" text-anchor="end">1/6.6</text>
<rect x="220" y="100" width="280" height="14" rx="7" fill="#e8eef0"/>
<rect x="220" y="100" width="40.37200446959294" height="14" rx="7" fill="#3d5a80"/>
<text x="220" y="144" fill="#6a7d8a" font-size="12" font-weight="600">L</text>
<text x="500" y="144" fill="#14212b" font-size="12" text-anchor="end">2.6/7.5</text>
<rect x="220" y="152" width="280" height="14" rx="7" fill="#e8eef0"/>
<rect x="220" y="152" width="98.56000000000003" height="14" rx="7" fill="#8a5a2b"/>
<text x="220" y="196" fill="#6a7d8a" font-size="12" font-weight="600">C</text>
<text x="500" y="196" fill="#14212b" font-size="12" text-anchor="end">2/9</text>
<rect x="220" y="204" width="280" height="14" rx="7" fill="#e8eef0"/>
<rect x="220" y="204" width="62.22222222222222" height="14" rx="7" fill="#0f4a3f"/>
  <text x="24" y="262" fill="#6a7d8a" font-size="11">Streak: 0 days · Last 7 days: 0 h</text>
</svg>