<?xml version="1.0" encoding="UTF-8"?>
<svg xmlns="http://www.w3.org/2000/svg" width="520" height="328" viewBox="0 0 520 328" role="img" aria-label="Skills summary">
  <rect width="100%" height="100%" fill="#f7f9fa" rx="12"/>
  <text x="24" y="32" fill="#14212b" font-size="16" font-weight="700">Skills (effective score)</text>
  <text x="24" y="60" fill="#14212b" font-size="12" font-weight="600">Net</text>
<rect x="140" y="48" width="300" height="16" rx="8" fill="#e8eef0"/>
<rect x="140" y="48" width="120" height="16" rx="8" fill="#1a6b5c"/>
<text x="456" y="60" fill="#6a7d8a" font-size="11" text-anchor="end">4</text>
<text x="24" y="94" fill="#14212b" font-size="12" font-weight="600">SecFund</text>
<rect x="140" y="82" width="300" height="16" rx="8" fill="#e8eef0"/>
<rect x="140" y="82" width="120" height="16" rx="8" fill="#1a6b5c"/>
<text x="456" y="94" fill="#6a7d8a" font-size="11" text-anchor="end">4</text>
<text x="24" y="128" fill="#14212b" font-size="12" font-weight="600">Crypto</text>
<rect x="140" y="116" width="300" height="16" rx="8" fill="#e8eef0"/>
<rect x="140" y="116" width="120" height="16" rx="8" fill="#1a6b5c"/>
<text x="456" y="128" fill="#6a7d8a" font-size="11" text-anchor="end">4</text>
<text x="24" y="162" fill="#14212b" font-size="12" font-weight="600">NetSec</text>
<rect x="140" y="150" width="300" height="16" rx="8" fill="#e8eef0"/>
<rect x="140" y="150" width="120" height="16" rx="8" fill="#1a6b5c"/>
<text x="456" y="162" fill="#6a7d8a" font-size="11" text-anchor="end">4</text>
<text x="24" y="196" fill="#14212b" font-size="12" font-weight="600">Python</text>
<rect x="140" y="184" width="300" height="16" rx="8" fill="#e8eef0"/>
<rect x="140" y="184" width="120" height="16" rx="8" fill="#1a6b5c"/>
<text x="456" y="196" fill="#6a7d8a" font-size="11" text-anchor="end">4</text>
<text x="24" y="230" fill="#14212b" font-size="12" font-weight="600">Linux</text>
<rect x="140" y="218" width="300" height="16" rx="8" fill="#e8eef0"/>
<rect x="140" y="218" width="96" height="16" rx="8" fill="#1a6b5c"/>
<text x="456" y="230" fill="#6a7d8a" font-size="11" text-anchor="end">3.2</text>
<text x="24" y="264" fill="#14212b" font-size="12" font-weight="600">Win/AD</text>
<rect x="140" y="252" width="300" height="16" rx="8" fill="#e8eef0"/>
<rect x="140" y="252" width="72" height="16" rx="8" fill="#1a6b5c"/>
<text x="456" y="264" fill="#6a7d8a" font-size="11" text-anchor="end">2.4</text>
<text x="24" y="298" fill="#14212b" font-size="12" font-weight="600">SIEM</text>
<rect x="140" y="286" width="300" height="16" rx="8" fill="#e8eef0"/>
<rect x="140" y="286" width="72" height="16" rx="8" fill="#1a6b5c"/>
<text x="456" y="298" fill="#6a7d8a" font-size="11" text-anchor="end">2.4</text>
</svg>